<svg width="789" height="229" xmlns="http://www.w3.org/2000/svg" xmlns:xlink="http://www.w3.org/1999/xlink" overflow="hidden"><defs><clipPath id="clip0"><rect x="0" y="0" width="789" height="229"/></clipPath></defs><g clip-path="url(#clip0)"><rect x="0" y="0" width="789" height="229.237" fill="#E8E8E8"/><g><g><g><path d="M35.8156 14.9802C34.0667 14.9802 32.6219 16.425 32.6219 18.174 32.6219 19.9229 34.0667 21.3677 35.8156 21.3677 37.5646 21.3677 39.0094 19.9229 39.0094 18.174 39.0094 16.425 37.5646 14.9802 35.8156 14.9802Z" transform="matrix(1 0 0 1.00103 391 59.0611)"/><path d="M29.4281 33.6104C29.4281 35.3743 27.9982 36.8042 26.2344 36.8042 24.4705 36.8042 23.0406 35.3743 23.0406 33.6104 23.0406 31.8465 24.4705 30.4167 26.2344 30.4167 27.9982 30.4167 29.4281 31.8465 29.4281 33.6104Z" transform="matrix(1 0 0 1.00103 391 59.0611)"/><path d="M44.8646 19.2385 42.9635 20.151C42.8114 20.7594 42.5073 21.2917 42.2031 21.824L42.8875 23.801 41.3667 25.3219 39.3896 24.6375C38.8573 24.9417 38.325 25.1698 37.7167 25.3219L36.8042 27.1469 34.675 27.1469 33.7625 25.2458C33.1542 25.0937 32.6219 24.8656 32.0896 24.5614L30.1125 25.2458 28.5917 23.725 29.276 21.7479C28.9719 21.2156 28.7437 20.6833 28.5917 20.075L26.6906 19.1625 26.6906 17.0333 28.5917 16.1208C28.7437 15.5125 28.9719 14.9802 29.276 14.4479L28.6677 12.4708 30.1885 10.95 32.1656 11.6344C32.6979 11.3302 33.2302 11.1021 33.8385 10.95L34.751 9.04895 36.8802 9.04895 37.7927 10.874C38.401 11.026 38.9333 11.2542 39.4656 11.5583L41.4427 10.874 42.9635 12.3948 42.2792 14.3719C42.5833 14.9042 42.8114 15.4365 42.9635 16.0448L44.8646 16.9573 44.8646 19.2385ZM35.2833 34.675 33.3823 35.5875C33.2302 36.1958 33.0021 36.7281 32.6979 37.2604L33.3062 39.2375 31.7854 40.7583 29.8083 40.0739C29.276 40.3781 28.7437 40.6062 28.1354 40.7583L27.299 42.5833 25.1698 42.5833 24.2573 40.6823C23.649 40.5302 23.1167 40.3021 22.5844 39.9979L20.6073 40.6062 19.0865 39.0854 19.7708 37.1083C19.4667 36.576 19.2385 36.0437 19.0865 35.4354L17.1854 34.5229 17.1854 32.3937 19.0865 31.4812C19.2385 30.8729 19.4667 30.3406 19.7708 29.8083L19.0865 27.8312 20.6073 26.3104 22.5844 26.9948C23.1167 26.6906 23.649 26.4625 24.2573 26.3104L25.1698 24.4094 27.375 24.4094 28.2875 26.3104C28.8958 26.4625 29.4281 26.6906 29.9604 26.9948L31.9375 26.3104 33.4583 27.8312 32.7739 29.8083C33.0781 30.3406 33.3062 30.8729 33.4583 31.4812L35.3594 32.3937 35.2833 34.675 35.2833 34.675ZM61.5937 37.4885 56.3469 28.3635 56.3469 27.9833C56.651 19.6187 52.3927 11.7865 45.1687 7.45208 37.9448 3.19375 29.0479 3.19375 21.824 7.45208 14.6 11.7104 10.3417 19.6187 10.6458 27.9833 10.6458 35.2073 13.9156 41.975 19.6187 46.3854L19.6187 65.6239 43.6479 65.6239 43.6479 56.4989 47.3739 56.4989C49.8073 56.4989 52.0885 55.5104 53.7614 53.8375 55.4344 52.0885 56.3469 49.8073 56.3469 47.3739L56.3469 42.8114 59.6927 42.8114C61.6698 42.5833 63.4187 40.3021 61.5937 37.4885Z" transform="matrix(1 0 0 1.00103 391 59.0611)"/></g></g></g><g><g><g><path d="M21.75 35.25C28.899 35.25 34.5 31.9553 34.5 27.75 34.5 23.5448 28.899 20.25 21.75 20.25 14.601 20.25 9.00001 23.5448 9.00001 27.75 9.00001 31.9553 14.601 35.25 21.75 35.25ZM21.75 23.25C27.4958 23.25 31.5 25.6215 31.5 27.75 31.5 29.8785 27.4958 32.25 21.75 32.25 16.0043 32.25 12 29.8785 12 27.75 12 25.6215 16.0043 23.25 21.75 23.25Z" transform="matrix(1 0 0 1.01494 526 142.147)"/><path d="M28.5 27.75C28.5 29.4069 25.4779 30.75 21.75 30.75 18.0221 30.75 15 29.4069 15 27.75 15 26.0932 18.0221 24.75 21.75 24.75 25.4779 24.75 28.5 26.0932 28.5 27.75Z" transform="matrix(1 0 0 1.01494 526 142.147)"/><path d="M67.2466 29.841C58.9643 26.1113 50.3956 26.166 41.7383 29.958 41.9109 29.2347 41.9988 28.4937 42 27.75 42 20.1803 33.1058 14.25 21.75 14.25 10.3943 14.25 1.5 20.1803 1.5 27.75L1.5 43.2705C1.5 51.39 10.7768 57.7501 22.6193 57.7501 29.7443 57.7501 37.1408 53.8418 41.1135 51.7418 49.4063 47.3588 57.5776 46.9215 65.3986 50.4436L70.5001 52.7423 70.5001 31.3065ZM45.75 33.198C46.7337 32.8506 47.7351 32.5557 48.75 32.3145L48.75 42 45.75 42ZM8.25001 38.25 8.88601 38.25C9.65146 38.6636 10.4409 39.0312 11.25 39.351L11.25 43.5 8.25001 43.5ZM23.25 41.211C24.275 41.161 25.275 41.0658 26.25 40.9253L26.25 45.75 23.25 45.75ZM30.75 39.8888C31.7764 39.5581 32.7788 39.1572 33.75 38.6888L33.75 48 30.75 48ZM38.25 36.6218C39.3263 36.1455 40.296 35.6738 41.1135 35.2418 41.1593 35.2178 41.2043 35.1975 41.25 35.1735L41.25 40.5 38.25 40.5ZM18.75 49.5 15.75 49.5 15.75 40.6688C16.7419 40.8659 17.7432 41.0123 18.75 41.1075ZM53.2501 36.75 53.2501 31.644C54.2491 31.5833 55.251 31.5833 56.2501 31.644L56.2501 36.75ZM21.75 18.75C30.2873 18.75 37.5 22.875 37.5 27.75 37.5 32.625 30.2873 36.75 21.75 36.75 13.2128 36.75 6.00001 32.6288 6.00001 27.75 6.00001 22.8713 13.2128 18.75 21.75 18.75ZM66.0001 45.8085C64.4796 45.1953 62.9136 44.7015 61.3163 44.3318 60.4961 42.5262 60.0484 40.5738 60.0001 38.5913 60.0295 36.4718 60.6531 34.4031 61.8001 32.6205 63.0292 32.9778 64.2321 33.4199 65.4001 33.9435L66.0001 34.2143Z" transform="matrix(1 0 0 1.01494 526 142.147)"/></g></g></g><g><g><g><path d="M79.877 32.3942C79.8229 31.6095 79.252 30.9574 78.4814 30.8L69.2291 28.9109C68.6537 28.7917 68.0571 28.9711 67.6427 29.3877L65.7738 31.2559 53.3488 18.8309C53.1988 21.3768 51.8245 23.6922 49.6615 25.0434L60.8239 36.2057 59.0187 38.0117C58.6087 38.4219 58.4285 39.0085 58.5375 39.578L60.3269 48.9265C60.4767 49.708 61.135 50.2901 61.929 50.3431L71.2093 50.9618C71.2486 50.9618 71.288 50.9661 71.3274 50.9661 72.2939 50.9978 73.103 50.24 73.1347 49.2734 73.1664 48.3069 72.4085 47.4978 71.442 47.4661L63.5093 46.9411 62.1486 39.8317 69.4522 32.5281 76.475 33.9588 77.0052 41.9072C77.0696 42.8723 77.904 43.6026 78.869 43.5382 79.834 43.4739 80.5642 42.6395 80.5 41.6745Z" transform="matrix(1 0 0 1.00103 535 53.0549)"/><path d="M37.5734 44.5734C37.5741 41.7607 36.7698 39.0065 35.2555 36.6362L29.0815 44.0125C25.8868 47.842 20.1925 48.3566 16.3629 45.1618 12.5335 41.9671 12.0189 36.2728 15.2136 32.4433 15.5613 32.0266 15.9458 31.642 16.3625 31.2944L16.59 31.1036C11.3149 33.5109 7.9296 38.7749 7.9275 44.5734L7.9275 61.25 37.5734 61.25Z" transform="matrix(1 0 0 1.00103 535 53.0549)"/><path d="M37.625 18.375C37.625 17.8424 37.6789 17.3112 37.786 16.7895L18.0451 33.3069C15.3337 35.5787 14.9774 39.6184 17.2492 42.3299 19.521 45.0413 23.5608 45.3976 26.2722 43.1258 26.5604 42.8844 26.8267 42.618 27.0681 42.3299L41.4645 25.1248C39.0872 23.7061 37.6295 21.1434 37.625 18.375ZM24.4326 38.4177C23.7493 39.1013 22.6412 39.1015 21.9578 38.4181 21.2742 37.7348 21.274 36.6268 21.9573 35.9432 22.6407 35.2597 23.7487 35.2595 24.4323 35.9429 24.4324 35.943 24.4325 35.9432 24.4326 35.9432 25.1158 36.6266 25.1158 37.7344 24.4326 38.4177Z" transform="matrix(1 0 0 1.00103 535 53.0549)"/><path d="M37.625 64.75 7.875 64.75C5.942 64.75 4.375 66.317 4.375 68.25L4.375 71.75 41.125 71.75 41.125 68.25C41.125 66.317 39.558 64.75 37.625 64.75Z" transform="matrix(1 0 0 1.00103 535 53.0549)"/><path d="M45.5 13.125C42.6005 13.125 40.25 15.4755 40.25 18.375 40.25 21.2745 42.6005 23.625 45.5 23.625 48.3995 23.625 50.75 21.2745 50.75 18.375 50.75 15.4755 48.3995 13.125 45.5 13.125ZM45.5 19.6875C44.7752 19.6875 44.1875 19.0998 44.1875 18.375 44.1875 17.6502 44.7752 17.0625 45.5 17.0625 46.2248 17.0625 46.8125 17.6502 46.8125 18.375 46.8125 19.0998 46.2248 19.6875 45.5 19.6875Z" transform="matrix(1 0 0 1.00103 535 53.0549)"/></g></g></g><path d="M0.00647109-1.0004 64.6029-0.58256 64.59 1.41824-0.00647109 1.0004ZM63.2885-3.59239 71.2658 0.460982 63.2367 4.41082Z" transform="matrix(1 0 0 -1.00103 464 95.5598)"/><g><g><g><path d="M42 8.75C23.625 8.75 8.75 23.625 8.75 42 8.75 60.375 23.625 75.25 42 75.25 60.375 75.25 75.25 60.375 75.25 42 75.25 23.625 60.375 8.75 42 8.75ZM12.25 42C12.25 34.2125 15.225 27.2125 20.125 21.875 20.9125 22.3125 21.7 23.0125 21.875 23.625L21.875 29.1375C21.875 29.4875 21.9625 29.925 22.225 30.1875L28 37.625 28.4375 37.1875C28.7 36.925 28.7875 36.4875 28.6125 36.1375L27.5625 34.3875C27.125 33.6875 27.825 32.8125 28.6125 33.075 28.875 33.1625 29.05 33.3375 29.1375 33.5125L32.025 39.2C32.375 39.8125 32.9 40.3375 33.5125 40.5125L37.3625 41.825C37.625 41.9125 37.8 42.0875 37.8875 42.2625L38.15 42.7C38.4125 43.3125 39.025 43.6625 39.725 43.6625L40.775 43.6625C41.0375 43.6625 41.3 43.8375 41.475 44.0125L42.6125 45.675C42.875 46.025 43.225 46.2875 43.6625 46.375L45.5 46.8125C46.025 46.9 46.2875 47.5125 46.1125 47.95 46.1125 47.95 44.7125 49.35 44.7125 51.3625 44.7125 57.1375 49.9625 58.8 49.9625 60.1125 49.9625 63.7 49.4375 68.6875 49.175 70.6125 46.9 71.1375 44.5375 71.4875 42.0875 71.4875 25.6375 71.75 12.25 58.3625 12.25 42ZM53.2 69.5625C55.125 67.9 58.3625 65.1 59.5 63.875 60.9875 62.2125 61.25 59.5 61.25 59.5 61.25 59.5 67.375 57.8375 67.375 53.375 67.375 50.3125 61.25 49 61.25 49 60.2 45.5875 55.0375 43.75 50.75 43.75 49.7875 43.75 46.375 45.5 46.375 45.5L44.625 44.625 44.625 42C44.625 41.475 44.275 41.125 43.75 41.125L42 41.125 42 38.5C42 37.975 41.65 37.625 41.125 37.625L40.25 37.625 39.2875 38.2375C38.4125 38.85 37.1875 38.5 36.75 37.5375 36.75 37.5375 35.875 36.3125 35.875 35.7875 35.875 32.025 40.25 32.2875 40.25 32.2875L42.175 32.2875C42.6125 32.2875 42.9625 32.55 43.05 32.9875L43.575 35.175C43.6625 35.525 44.0125 35.875 44.45 35.875L44.8 35.875C45.2375 35.875 45.5875 35.6125 45.675 35.175L46.2875 31.9375C46.375 31.675 46.4625 31.4125 46.6375 31.15L49.0875 28.0875C49.6125 27.475 50.3125 27.125 51.1 27.125L53.375 27.125C53.9 27.125 54.25 26.775 54.25 26.25L54.25 25.375 53.9875 25.1125C53.4625 24.5875 53.8125 23.625 54.6 23.625L55.125 23.625C55.65 23.625 56 23.975 56 24.5 56 25.025 56.35 25.375 56.875 25.375L57.75 25.375 58.275 23.1C58.45 22.3125 58.1 21.6125 57.4875 21.175L50.05 16.7125C49.9625 16.625 49.7875 16.625 49.6125 16.625L48.125 16.625C47.1625 16.625 46.375 17.4125 46.375 18.375L46.375 19.25C46.375 19.775 46.025 20.125 45.5 20.125L44.625 20.125 43.75 19.25 41.125 19.25C40.6 19.25 40.25 18.9 40.25 18.375L40.25 16.1875C40.25 15.925 40.3375 15.6625 40.6 15.4875L46.2 13.125 47.075 14.6125C47.25 14.7875 47.425 14.875 47.6875 14.875L49.875 14.875C50.4 14.875 50.75 14.525 50.75 14L50.75 13.5625C62.9125 17.325 71.75 28.6125 71.75 42 71.75 54.425 64.05 65.1 53.2 69.5625Z" transform="matrix(1 0 0 1.00103 662 53.0549)"/><path d="M52.7625 38.325 48.5625 36.925C48.2125 36.8375 47.95 36.8375 47.6 36.925L44.625 37.625C44.3625 37.8 44.275 38.15 44.625 38.5L48.65 38.5C48.9125 38.5 49.0875 38.5 49.2625 38.5875L52.325 39.8125C52.85 39.9875 53.375 39.6375 53.375 39.1125 53.375 38.7625 53.1125 38.4125 52.7625 38.325Z" transform="matrix(1 0 0 1.00103 662 53.0549)"/></g></g></g><path d="M2.49537e-06-1.00042 35.4388-1.00033 35.4388 1.00051-2.49537e-06 1.00042ZM34.1049-4.00161 42.1083 0.000105031 34.1049 4.00178Z" transform="matrix(1 0 0 -1.00103 619 95.0984)"/><path d="M525.97 179.408 427 179.408 427 138.813 429 138.813 429 178.407 428 177.405 525.97 177.405ZM423.998 140.148 428 132.137 432.002 140.148Z"/><path d="M704.311 137.142 704.311 179.179 604.669 179.179 604.669 177.176 703.311 177.176 702.311 178.177 702.311 137.142ZM606.003 182.183 598 178.177 606.003 174.172Z"/></g></svg>